<svg xmlns="http://www.w3.org/2000/svg" viewBox="50 50 200 200" xml:space="preserve"><path fill="transparent" d="M1 49V1.01h301.93v273.87H1c0-72.9 0-145.92.44-219.42 2.25-.53 4.18-.21 5.83-.75 1.26-.4 2.17-1.9 3.24-2.9-1.04-.87-1.96-2.24-3.13-2.5-2.05-.47-4.25-.25-6.38-.31m65.74 119.84c-.18 4.38 1.35 7.84 4.5 11.1 4.34 4.52 7.93 9.76 12.05 14.5 1.57 1.82 3.72 3.13 5.78 5.34 3.57 3.83 6.45 9.06 10.84 11.21 8.66 4.25 18.12 6.87 27.3 10 6.23 2.12 12.58 3.9 18.83 5.97a6.2 6.2 0 0 1 3.02 2.28c5.27 7.93 10.8 15.73 15.48 24 4.77 8.41 6.17 8.5 14.06 3.03 5.43-3.76 12.17-5.64 19.1-8.32 4.36-1.48 8.8-2.76 13.07-4.47 6.88-2.76 13.66-5.78 20.47-8.72 5.17-2.23 10.5-4.18 15.43-6.86 4.55-2.48 5.11-6.02 2.62-10.59-1.1-2.03-2.4-4-3.18-6.16-2.47-6.81-4.78-13.69-7.1-20.56-2-5.95-4.74-11.8-5.72-17.93-2.32-14.56-3.5-29.3-5.7-43.88-1.4-9.31-3.33-18.46-11.43-25.16-5.57-4.6-10.08-10.5-15.48-16.31-1.54-1.44-3.09-2.87-4.9-4.77-.57-.33-1.14-.66-2.44-1.26-6.36-3.44-13.01-4.7-20.24-3.32-2.32.44-5.34.4-7.25-.73-8.05-4.77-16.43-4.56-25.16-3.02-2.54.45-5.32.2-7.88-.28-5.05-.93-9.8-1.17-14.44 1.76-3.73 2.36-6.91 1.67-9.93-2.08-6.56-8.16-13.6-15.94-20.4-23.91-2.42-2.85-5.35-3.25-8.52-1.75-3.29 1.56-6.61 3.14-9.57 5.21-2.76 1.93-6.83 4.25-7.2 6.85-.84 5.93-1.6 13.05.9 18.03 4.96 9.87 12.3 18.53 18.4 27.86a3456 3456 0 0 1 31.44 49.08c.81 1.3.12 3.54.13 5.34-1.58-.8-3.92-1.2-4.62-2.5a145 145 0 0 1-7.17-15.3c-4.06-10.1-17.21-16.36-26.6-11.68-14.85 7.4-13.34 3.23-12.98 21.7a339 339 0 0 1 2.1 5.03c.25 1.14.51 2.28.45 4 .63 2.13 1.25 4.27 1.94 7.27"/><path fill="#451316" d="M65.12 161c-.26-1.15-.52-2.29-.9-4.12a82 82 0 0 0-1.83-5.1c-.5-17.7-2.01-13.55 12.83-20.94 9.4-4.68 22.55 1.58 26.61 11.69a147 147 0 0 0 7.17 15.3c.7 1.28 3.04 1.68 4.62 2.5 0-1.8.68-4.05-.13-5.35a3456 3456 0 0 0-31.45-49.08c-6.1-9.33-13.43-17.99-18.39-27.86-2.5-4.98-1.74-12.1-.9-18.03.37-2.6 4.44-4.92 7.2-6.85 2.96-2.07 6.28-3.65 9.57-5.2 3.17-1.51 6.1-1.1 8.53 1.74 6.8 7.97 13.83 15.75 20.4 23.91 3.01 3.75 6.19 4.44 9.92 2.08 4.64-2.93 9.4-2.69 14.44-1.76 2.56.47 5.34.73 7.88.28 8.73-1.54 17.11-1.75 25.16 3.02 1.91 1.14 4.93 1.17 7.25.73 7.23-1.37 13.88-.12 20.75 3.64l2.2 1.4a49 49 0 0 1 4.8 4.95c.14 1.18.1 1.72-.25 2.17-1.06-.45-1.82-.8-2.7-1.43-.68-.75-1.25-1.23-2.01-2.04a214 214 0 0 0-16.16-5.5c-1.5-.43-3.62-.49-4.84.27-3.63 2.24-7.13 1.7-10.9.17-.72-.77-1.31-1.26-2.06-2.06-5.03-4.97-10.67-4.99-16.78-3.4-3.63.93-7.42 1.25-11.47 1.71-4.61-2.48-8.95-3.5-13.31-.41-4.06 2.87-8.19 3.02-12.43.62.06-.05-.06.06-.1-.28-1.21-1.55-2.4-2.76-3.74-4.19-.52-.63-.87-1.05-1.26-1.8-1.53-1.9-3.03-3.47-4.64-5.18a1.6 1.6 0 0 1-.38-.81c-2.84-3.58-5.65-6.81-8.64-10.26-.54-.62-.9-1.02-1.34-1.79-1.62-3.55-4.1-4.84-7.35-3.22a200 200 0 0 0-12.53 6.97 7.3 7.3 0 0 0-2.72 2.74c-2.95 5.74-.52 17.26 4.5 21.97 0 .02.02.05.06.36.7 1.06 1.38 1.8 2.11 2.5.06-.04-.05.07-.02.42 1.63 2.48 3.24 4.6 4.86 6.72.02 0 .02.04.05.4 3.24 4.8 6.45 9.27 9.82 14 .77 1.13 1.39 1.99 2.07 3.16a70 70 0 0 0 3.06 4.43c.02 0 .03.04.07.38 1.65 2.44 3.27 4.53 4.9 6.64.01.02.04.05.08.4a315 315 0 0 0 7.14 10.8 29 29 0 0 1 1.71 3.19c.96 1.52 1.86 2.71 2.81 4.08.07.17.25.49.29.8a12 12 0 0 0 1.99 2.66c.08-.12-.07.14-.02.5 1.4 2.82 2.83 5.25 4.04 7.78.92 1.92 2.1 3.95 2.15 5.96.05 1.9-.71 4.77-2.04 5.49-1.3.7-4.5-.19-5.58-1.46-2.51-2.96-4.38-6.5-6.28-9.92-2.6-4.73-3.97-10.68-7.7-14.15-6.9-6.4-14.94-8.32-23.87-1.95-6.8 4.84-7.52 4.93-6.15 13.5.86 5.39 1.55 10.8 2.08 16a63 63 0 0 1-2.25-3.9"/><path fill="#3F1114" d="m200.9 90.2.17-2.01c5.01 4.92 9.52 10.82 15.1 15.43 8.1 6.7 10.01 15.85 11.42 25.16 2.2 14.59 3.38 29.32 5.7 43.88.98 6.13 3.72 11.98 5.73 17.93 2.31 6.87 4.62 13.75 7.1 20.56.78 2.16 2.06 4.13 3.17 6.16 2.5 4.57 1.93 8.1-2.62 10.59-4.93 2.68-10.26 4.63-15.43 6.86-6.81 2.94-13.59 5.96-20.47 8.72-4.27 1.7-8.7 3-13.28 4.16 6.32-3.39 12.83-6.5 19.37-9.56 4.74-2.22 9.5-4.4 14.5-6.67.44-.15.6-.22 1.15-.32a361 361 0 0 0 14.14-6.9c1.96-2.92 1.58-4.99-1.56-6.64-1.07-2.46-2.05-4.55-3.07-7.01-2.51-6.79-5.12-13.16-7.4-19.64a150 150 0 0 1-4.05-14.35c.24-1 .47-1.68.38-2.3q-4-28-8.16-55.98c-.13-.84-1.1-1.55-1.78-2.55-.27-.5-.52-.7-.88-1.13-1.04-1.48-2.04-2.62-3.2-4.05-2.07-2.41-3.98-4.53-6-6.9-.67-.74-1.23-1.21-1.86-2-.73-1.09-1.4-1.86-2.2-2.93-1.33-1.44-2.54-2.6-3.8-4.09a71 71 0 0 0-2.16-4.42"/><path fill="#792328" d="M231.1 231.5q-7.12 3.27-14.24 6.58a787 787 0 0 0-19.75 9.54c-6.34 3-13.08 4.89-18.51 8.65-7.89 5.47-9.29 5.38-14.06-3.03-4.69-8.27-10.21-16.07-15.48-24-.67-1-1.88-1.9-3.02-2.28-6.25-2.08-12.6-3.85-18.83-5.98-9.18-3.12-18.64-5.74-27.3-9.99-4.39-2.15-7.27-7.38-10.94-11.88-.1-1.12-.1-1.57.17-1.86 1.45 1.04 2.61 1.92 4.06 2.99 3.74 3.06 7.19 5.94 10.88 9.11 9.99 3.7 19.73 7.09 29.47 10.5 2.91 1.03 5.73 2.67 8.72 3.09 7.04.99 10.98 5.33 14.27 11.1 3.62 6.32 7.73 12.36 11.66 18.5 2.2 3.42 4.77 4.3 8.17 1.37a21 21 0 0 1 5.39-3.44c4.95-2.11 10.04-3.87 15.01-5.93 6.5-2.69 12.92-5.53 19.7-8.37 1.22-.63 2.12-1.2 3.2-1.79.17-.01.5-.13.88-.17 3.77-.93 7.17-1.83 10.56-2.72"/><path fill="#451316" d="M88.87 197.1c0 .44 0 .89.02 1.67-1.88-1.2-4.03-2.51-5.6-4.33-4.12-4.74-7.7-9.98-12.05-14.5-3.15-3.26-4.68-6.72-4.23-11.53.46-.42.65-.4 1.12-.34.63.12 1 .18 1.34.53.02.66.06 1.03-.03 1.7.64 2.25 1 4.53 2.24 6.1 5.6 7 11.43 13.81 17.19 20.7"/><path fill="#1F080A" d="m67.86 168.01-.88-.03a32 32 0 0 1-2.02-6.7c.83.95 1.5 2.19 2.5 3.97.34 1.29.37 2.03.4 2.76m-5.54-15.85a22 22 0 0 1 1.79 4.4 22 22 0 0 1-1.79-4.4"/><path fill="#3F1114" d="M195.92 82.77q-.65-.2-1.7-1.04.64.21 1.7 1.04"/><path fill="#DA4049" d="M216.15 236.23c-6.46 2.78-12.89 5.62-19.38 8.31-4.97 2.06-10.06 3.82-15.01 5.93a21 21 0 0 0-5.39 3.44c-3.4 2.93-5.98 2.05-8.17-1.37-3.93-6.14-8.04-12.18-11.66-18.5-3.3-5.77-7.23-10.11-14.27-11.1-3-.42-5.8-2.06-8.72-3.08-9.74-3.42-19.48-6.82-29.07-10.53a28 28 0 0 1 5.97-2.33c3.24.95 6.08 1.96 9.02 2.5 2.3.43 4.73.29 7.1.4.04-2.43.73-5.07 0-7.24a375 375 0 0 0-9.9-26.52c-1.07-2.52-3.75-4.5-6.03-6.3-2.94-2.33-6.4-4.02-9.25-6.43-.8-.67-.25-2.92-.31-4.44 1.23.52 2.6.84 3.66 1.59 2.4 1.68 4.42 4.1 7.02 5.25 4.65 2.07 6.76.4 7.12-4.75.52-7.44-3.04-12.98-8.2-17.78 0 0 .14-.26.07-.47a51 51 0 0 0-2.04-2.64s-.18-.32-.2-.85a27 27 0 0 0-2.92-4.05c-.49-.87-.98-1.75-1.63-3.23-2.5-4-4.85-7.39-7.2-10.78 0 0-.03-.03-.01-.41-1.65-2.46-3.31-4.54-4.97-6.62l-.02-.4a47 47 0 0 0-3.13-4.39c-.62-.85-1.24-1.7-1.97-3.2a350 350 0 0 0-9.89-14l-.03-.4c-1.64-2.47-3.26-4.6-4.88-6.71 0 0 .11-.11.04-.39-.76-1.01-1.45-1.75-2.14-2.5l-.03-.42a67 67 0 0 0-1.93-5.43c-2.78-6.76-.86-15.54 4.25-18.68.4-.25.64-.53 1.2-1 4.9-2.06 9.16-5.96 14.65-2.61a8 8 0 0 1 1.27 1.8c3 3.78 5.84 7.01 8.67 10.24 0 0 .24.3.37.8a69 69 0 0 0 4.67 5.17c.35.42.7.84 1.22 1.81a44 44 0 0 0 3.78 4.19s.12-.1.1.28c1.62 1.74 3.27 3.09 5.16 4.69a37 37 0 0 1 2.95 4.43c1.25 6.7 5.56 10.52 10.86 13.52.04-.02-.02.05.02.4a93 93 0 0 0 5.26 5.73c.48.63.76 1.06 1.08 1.87 1.02 2.87 2.01 5.37 2.65 7.8a228 228 0 0 1-9.03-6.8c.03 0 .01.06-.02-.3-3.3-3.87-6.56-7.39-10.12-11.03-1.52-1.46-2.7-2.82-3.96-4.09-2.72-2.72-5.48-5.4-8.34-8.26-.1-.17-.35-.48-.31-.84-1.28-2.46-2.58-4.58-3.85-6.94-.75-1.02-1.55-1.8-2.33-2.57l-.05-.35A90 90 0 0 0 92 68.7a40 40 0 0 1-4-4.13 17 17 0 0 0-2.15-2.73 8 8 0 0 1-1.03-1.22c-6.35-3.21-11.77-1.18-12.87 4.74a6 6 0 0 1-.56 1.78c-.08 1.77.07 3.34.34 5.26 1.04 2.1 1.8 3.94 2.9 5.56C86.21 95.07 98 112.04 109.4 129.28c5.27 7.97 9.8 16.44 14.48 25.06-.4 5.77-.61 11.17-.84 16.93-1.32 3.54.7 5.17 2.64 6.84-.98 1.92-2.72 4.25-2.14 5.34 3.52 6.67 3.4 15 9.43 20.87.98 5.52 3.4 9.37 9.06 10.74 1.46.4 2.7.69 3.97 1.32 1.34 1.14 2.66 1.94 4.17 3a30 30 0 0 0 3.8 1.65c.03 0 0 .04.11.3.66.8 1.2 1.32 1.9 2.1.78.68 1.41 1.12 2.22 1.8.44.94.71 1.66 1.04 2.68.55.91 1.06 1.51 1.66 2.28.1.17.23.53.3.84.65.86 1.22 1.41 1.89 2.2.23.53.27.85.27 1.51.58.97 1.11 1.61 1.64 2.26l.04.33c.98 1.45 1.93 2.55 3 3.9.17.6.25.94.34 1.65.81 3.14 1.96 5.43 5.9 4.25.83-.03 1.3-.02 2.03.12 1.4-.66 2.55-1.46 3.91-2.36a2.6 2.6 0 0 1 1.64-.2c3.2.34 5.88.4 7.02-2.89 0 .04-.09.03.2-.04.85-.59 1.41-1.1 2.15-1.75.9-.29 1.63-.44 2.76-.5 5.25-1.75 10.28-3.24 14.88-5.56 2.44-1.22 3.01-3.9-.19-6.03-.65-.15-1.03-.21-1.59-.47a8 8 0 0 0-1.58-.82q0 .04.17.03c.12 0 .15-.23.27-.56-2.34-4.82-4.8-9.3-7.3-14.08-.57-.88-1.09-1.46-1.77-2.3-.48-.98-.81-1.7-1.2-2.74-.63-.84-1.2-1.38-1.86-2.09a2 2 0 0 1-.22-.87 31 31 0 0 0-2.8-4.29c-1-1.88-1.75-3.54-2.36-5.69 1.08-7.57.26-14.27-4.37-20.53-.47-.83-.77-1.29-1.06-2.04-.08-.88-.18-1.46-.07-2.44.27-2.14.34-3.88.6-5.97.33-.58.44-.82.93-1.06 1.37 0 2.37 0 3.58.35a79 79 0 0 1 1.06 7.9c.5 2.23 1.07 4.06 1.66 6.19.06.72.1 1.12-.02 1.87.8 3.76 1.75 7.2 2.73 10.91.09.66.16 1.03.15 1.76a27 27 0 0 0 2.07 4.44c.88 1.04 1.56 1.83 2.24 3 1.02 2.6 1.87 4.92 3.1 7.02 4 6.8 8.12 13.5 12.24 20.57.6 1.55 1.18 2.76 1.5 4.15-3.29 2.82-2.4 4.24 1.22 5.14z"/><path fill="#A32F36" d="M110.72 143.63c5.12 4.45 8.68 9.99 8.16 17.43-.36 5.15-2.47 6.82-7.12 4.75-2.6-1.15-4.62-3.57-7.02-5.25-1.07-.75-2.43-1.07-3.66-1.6.06 1.53-.48 3.78.3 4.45 2.86 2.4 6.32 4.1 9.26 6.42 2.28 1.8 4.96 3.8 6.03 6.3a375 375 0 0 1 9.9 26.53c.73 2.17.04 4.81 0 7.24-2.37-.11-4.8.03-7.1-.4-2.94-.54-5.78-1.55-9.34-2.68-4.4-2.63-8.65-4.4-11.72-7.39-5-4.84-9.27-10.44-13.74-15.8-5.72-6.88-12.25-13.43-10.82-23.98-.97-4.8-1.88-9.22-2.7-13.97a45 45 0 0 1 3.34-5.51c1.05-.4 1.8-.73 3-1.05 1.59.16 2.74.3 3.67.7-4.06 1.78-7.93 3.63-7.17 8.6.75 5.03 2.25 9.94 3.43 15.27.06 1.37.12 2.35.06 3.64.62 2.07.99 4.16 2.15 5.59q10.4 12.78 21.11 25.28c5.2 6.08 12.89 7.27 19.96 9.4 3.26.98 4.8-1.45 3.55-4.95-2.74-7.66-5.13-15.5-8.57-22.84-1.71-3.66-4.83-7.55-8.33-9.32-6.6-3.35-10.1-8.61-11.87-15.13-1.91-7-5.55-12.3-11.5-15.88 3.02.37 5.65.8 8.29 1.25-5.45-7.54-10.14-8.46-17.59-4.66-1.08.72-1.9 1.3-3.06 1.97-4.72 1.3-5.36 4.16-3.83 8.4.98 4.77 1.95 9.1 2.81 13.85-.44 2.94-.77 5.49-1.11 8.03l-1.36-.25c-.3-.8-.33-1.53-.44-2.63-.85-5.75-1.54-11.16-2.4-16.54-1.37-8.58-.65-8.67 6.15-13.51 8.93-6.37 16.98-4.46 23.87 1.95 3.73 3.47 5.1 9.42 7.7 14.15 1.9 3.43 3.77 6.96 6.28 9.92 1.09 1.27 4.29 2.15 5.58 1.46 1.33-.72 2.09-3.6 2.04-5.5-.06-2-1.23-4.03-2.15-5.95-1.21-2.53-2.65-4.96-4.04-7.79m-9.96 9.35-2.81-3.8c.17 2.88.1 4.26.42 5.53.12.48 1.19.7 1.82 1.05.23-.72.45-1.45.57-2.78"/><path fill="#DA4049" d="M203.11 94.96a37 37 0 0 1 3.83 4.07 20 20 0 0 0 2.2 2.92c.56.48 1.12.95 1.83 2.05 2.1 3.42 4.05 6.21 6.22 9.24 1.13.72 2.06 1.2 2.98 1.68.32.1.57.3.75 1.24.05 2.7.08 4.77-.06 7.12a42 42 0 0 1-3.23 4.75c-.56-.18-.88-.29-1.24-.8-1.01-8.73-2.02-9.9-8.68-10.3-2.12-1.11-3.92-2.04-5.37-3.06 2.01-1.41 5.1-2.83 5.01-4-.14-1.9-2.38-3.63-3.93-5.6-.42-.4-.66-.63-.89-1.23a38 38 0 0 0-3.96-3.95c-.4-.38-.6-.61-.83-1.22-1.68-2.09-3.35-3.81-4.9-5.6.1-.05-.12.04-.2-.26-.97-1.12-1.84-1.95-2.63-3.12a46 46 0 0 1 6.06-1.91c.58.48 1.15.96 1.9 2.06a74 74 0 0 0 5.14 5.92"/><path fill="#D83F48" d="M195.89 86.65c-1.82.85-3.81 1.38-6.24 2.11-3.33-.25-6.2-.7-9.4-1.14-1.14.03-1.97.03-3.17-.06-1.58.09-2.8.27-4.39.37-3.17-1.98-6-3.87-8.75-5.85l.19-.23c3.63 1.27 7.13 1.81 10.76-.43 1.22-.76 3.34-.7 4.84-.27a214 214 0 0 1 16.16 5.5"/><path fill="#8E292F" d="M87.84 53.74c-5.43-2.99-9.68.9-14.8 3.07-.75.44-.96.64-1.14.87-4.96 3.17-6.88 11.95-4.1 18.71a65 65 0 0 1 1.92 5.42c-5-4.32-7.43-15.84-4.48-21.58a7.3 7.3 0 0 1 2.72-2.74 197 197 0 0 1 12.53-6.97c3.25-1.62 5.73-.33 7.35 3.22m25.06 29.09a65 65 0 0 1-4.98-4.39c4.26 2.01 8.4 1.86 12.45-1.01 4.36-3.1 8.7-2.07 13.31.73.34.89.34 1.32 0 1.74-7.63-2.3-14.2.38-20.78 2.93"/><path fill="#792328" d="m134.03 79.9-.02-1.6c3.72-.92 7.5-1.24 11.14-2.18 6.1-1.58 11.75-1.56 16.39 3.45-1.99 0-3.74-.35-5.76-.96a64 64 0 0 0-7.15-1.46c-5.12.92-9.86 1.84-14.6 2.75"/><path fill="#8E292F" d="M76.8 92.6q4.86 6.14 9.7 13.37-4.86-6.15-9.7-13.38m21.02-26.8a121 121 0 0 1-8.48-9.69 121 121 0 0 1 8.48 9.69M96.8 121.6a130 130 0 0 1 6.98 10.2 130 130 0 0 1-6.98-10.2"/><path fill="#D83F48" d="M156.04 78.86c1.76.36 3.51.71 5.66 1.02.98.45 1.57.94 2.3 1.7q.2.4-.42.48c-1.8.68-3.19 1.3-4.85 1.8a10 10 0 0 1-2.75-2.18z"/><path fill="#8E292F" d="M91.82 114.57a50 50 0 0 1 4.91 6.26 50 50 0 0 1-4.91-6.26M71.9 85.48a53 53 0 0 1 4.83 6.36 53 53 0 0 1-4.84-6.36"/><path fill="#D83F48" d="M203.07 94.62a45 45 0 0 1-5-5.32c.7.01 1.47.37 2.53.82a25 25 0 0 1 2.47 4.5"/><path fill="#8E292F" d="M102.84 71.77a32 32 0 0 1-4.5-4.67 32 32 0 0 1 4.5 4.67m5 6a19 19 0 0 1-3.57-3.63 19 19 0 0 1 3.57 3.63m-19.15 31.99a24 24 0 0 1 3.06 4.07q-1.49-1.53-3.06-4.07"/><path fill="#A32F36" d="M105.65 135.6c.92.85 1.89 2.02 2.8 3.55a16 16 0 0 1-2.8-3.55m3.1 4.89q.94.73 1.91 2.45a8 8 0 0 1-1.91-2.45"/><path fill="#8E292F" d="M69.8 82.56a8 8 0 0 1 2.04 2.23 8 8 0 0 1-2.04-2.23"/><path fill="#DA4049" d="M230.41 176.9c1.39 4.67 2.58 9.41 4.2 14 2.3 6.48 4.9 12.85 7.4 20.04.88 3.23 1.75 5.67 2.76 8.46.28 1.07.41 1.79.33 2.74-.51.8-.8 1.35-1.25 1.97-.16.05-.5.07-.81.14-.89.61-1.47 1.16-2.35 1.88-2.1.76-3.89 1.33-5.88 1.81-.75.28-1.3.64-1.83 1.02.01.02-.04 0-.37.02-2.04-.09-3.74-.2-5.97-.33 2.66-2.3 4.53-3.9 6.7-5.71 3.68-1.82 5.6-3.94 3.87-8.08-1.9-4.53-3.47-9.2-5.04-13.85-2-5.9-3.7-11.9-5.82-17.75-.69-1.9-2.25-3.48-3.44-5.55-.13-1.07-.24-1.77-.2-2.9.22-1.88.28-3.34.51-5.16-.74-5.09-1.64-9.81-2.59-14.86-.58-1.14-1.12-1.96-1.68-3.16-.17-1.4-.32-2.41-.32-3.77-.06-1.52-.28-2.7-.5-4.28-.17-1.75-.33-3.1-.33-4.83.3-1.5.46-2.6.93-3.69a22 22 0 0 1 4.93 2.43c1.16 8.22 2.1 16.05 3.38 23.81.87 5.24 2.23 10.4 3.37 15.6"/><path fill="#792328" d="M230.57 176.55c-1.3-4.85-2.66-10-3.53-15.25-1.29-7.76-2.22-15.59-3.33-24.2-.9-5.26-1.78-9.69-2.67-14.12a159 159 0 0 1-.02-6.6c.67.34 1.64 1.05 1.77 1.9q4.16 27.96 8.16 55.96c.1.63-.14 1.3-.38 2.31"/><path fill="#C43941" d="m233.04 223.13-6.4 5.52c2.23.13 3.93.24 5.85.6.03.8-.16 1.33-.35 1.88l-.77.28a95 95 0 0 1-10.92 2.44l-5.42-3.88c-.57-1.2-1.15-2.41-1.42-3.8 3.42 2.18 6.62 2.22 10.14.57 3-1.41 6.19-2.42 9.3-3.6"/><path fill="#792328" d="M232.51 231.1c-.18-.52.01-1.06.32-1.87.11-.27.16-.25.43-.31a20 20 0 0 0 1.75-.88c1.8-.58 3.58-1.15 5.97-1.99a18 18 0 0 0 2.37-1.87s.34-.02.82-.08c.9-.1 1.32-.14 1.86-.06l.37.37c-4.5 2.22-9 4.43-13.89 6.68"/><path fill="#D83F48" d="M216.97 113a207 207 0 0 1-5.9-8.74 47 47 0 0 1 5.84 6.64c.11 1.14.09 1.62.06 2.1"/><path fill="#C43941" d="M244.63 219.06c-.87-2.45-1.74-4.9-2.6-7.75 1 1.69 2 3.78 2.92 6.52-.15.84-.24 1.04-.32 1.23"/><path fill="#792328" d="M244.77 219.4c-.06-.53.03-.73.25-1.2 3.21 1 3.6 3.07 1.63 5.98-.25.23-.5-.01-.66-.4-.33-.88-.5-1.37-.67-1.87-.14-.72-.27-1.44-.55-2.5"/><path fill="#C43941" d="M217.19 113.24a6 6 0 0 1-.12-2.05q1.52 1.17 3.06 3.4a8 8 0 0 1-2.94-1.35"/><path fill="#D83F48" d="M209.07 101.64a10 10 0 0 1-2-2.32q.9.69 2 2.32"/><path fill="#E1424B" d="M69.47 168.6c.36-2.82.7-5.37 1.54-8.28 1.3-.35 2.1-.32 2.9-.3-1.49 10.18 5.04 16.73 10.76 23.6 4.47 5.37 8.75 10.97 13.74 15.81 3.07 3 7.32 4.76 11.37 7.26-1.5.9-3.33 1.62-5.54 2.36-3.85-2.87-7.3-5.75-11.13-9.15-3.75-4.76-7.16-9-10.52-13.26q-6.53-8.3-13.02-16.63c-.04-.38-.08-.75-.1-1.4"/><path fill="#A32F36" d="M69.44 170.3c4.47 5.25 8.8 10.8 13.15 16.34 3.36 4.27 6.77 8.5 10.24 13.08-1.08-.55-2.24-1.43-3.69-2.47-6.03-7.04-11.87-13.85-17.46-20.86-1.25-1.56-1.6-3.84-2.24-6.09"/><path fill="#E1424B" d="M214.77 230.16c1.9 1 3.55 2.19 5.3 3.73.1.36-.23.48-.77.47-1.47.2-2.4.42-3.34.62-3.58-.58-4.47-2-1.19-4.82"/><path fill="#C43941" d="M216 235.3a8 8 0 0 1 3.12-.92 10 10 0 0 1-2.65 1.8c-.36-.15-.39-.36-.47-.88"/><path fill="#020101" d="M145.98 216.04a19 19 0 0 1-3.84-1.2c-2.64-3.85-5.16-7.38-7.72-11.28-.29-1.35-.53-2.33-.72-3.7a580 580 0 0 0-5.38-17.04c3.81.98 6.53 1.68 9.57 2.41.94.2 1.55.37 2.31.86 1.75 1.43 3.22 3.07 5 3.52 2.57.65 5.74 1.28 7.9.28 1.32-.6 1.83-4.34 1.63-6.57-.65-7.06-1.68-14.1-2.87-21.09-.26-1.53-1.77-2.85-2.8-4.58a4 4 0 0 1 0-1.94c-.33-7.04-.6-13.77-1.51-20.42-.68-4.89-.16-5.89 4.7-6.32 3.75-.34 7.47-1.07 11.2-1.65 3.69-.57 7.32-.97 9.9 2.97.02.99 0 1.65-.07 2.72.72 2.3 1.52 4.2 2.38 6.41.14.74.2 1.16.1 1.94.38 6.2.69 12.08 1.6 17.87.38 2.4 2.05 4.6 3.21 7.25.15 1.08.23 1.8.14 2.9a41.3 41.3 0 0 0 4.7 24.93c.2 1.17.33 1.95.33 3.02 1.33 2.41 2.79 4.54 4.34 6.92.15.6.21.94.3 1.64.89 1.26 1.77 2.18 2.72 3.26.06.16.13.5.2.8.61.9 1.16 1.47 1.8 2.3.14.6.2.95.26 1.67 1.56 2.27 3.1 4.17 4.72 6.24.06.17.13.53.2.84.61.87 1.17 1.43 1.91 2.2.46.7.74 1.18 1.1 1.98.83.7 1.56 1.1 2.28 1.48 0 0-.07 0-.2.41-.1 1.64-.07 2.86-.08 4.13-.04.05-.13.13-.53.12-3.5 1.55-6.63 3.12-9.75 4.69l-.42-.01c-2.81.99-5.2 1.99-7.9 3.08-.67.22-1.06.35-1.79.41-1.62.68-2.9 1.42-4.46 2.22-.67.15-1.06.24-1.74.18-4.8 1.06-7.06-2.37-10.01-5.04a24 24 0 0 1-2.18-3.96c-.82-1.5-1.7-2.64-2.8-4.03-.87-1.38-1.5-2.5-2.1-4a69 69 0 0 0-5.52-5.92c-.02.04 0-.04-.12-.36-2.35-3.75-5.19-5.39-9.48-3.2-.32.33-.42.5-.51.66"/><path fill="#090303" d="M104.14 85.87s.25.31.28.83c5.68 7.68 10.83 15.3 17.08 21.88 7.58 7.97 11.98 16.62 12.59 27.84.54 9.91 3.01 19.72 4.51 29.59.7 4.6-1.43 6.23-5.78 4.45-3.92-1.6-5.75-4.53-5.92-8.92-.18-4.23.1-9.22-1.99-12.5-14.24-22.48-29.06-44.6-43.66-66.85-2-3.05-4.07-6.1-5.65-9.37-1.59-3.28-1.26-6.64 2-8.9 3.35-2.32 5.86-.66 8.1 2.1 4.2 5.17 8.4 10.34 12.8 15.32 1.58 1.78 3.75 3.04 5.64 4.53"/><path fill="#651D21" d="M104.18 85.51c-1.93-1.13-4.1-2.39-5.67-4.17a471 471 0 0 1-12.8-15.32c-2.25-2.76-4.76-4.42-8.11-2.1-3.26 2.26-3.59 5.62-2 8.9 1.58 3.27 3.65 6.32 5.65 9.37 14.6 22.25 29.42 44.37 43.66 66.85 2.08 3.28 1.81 8.27 1.99 12.5.17 4.4 2 7.32 5.92 8.92 4.35 1.78 6.49.15 5.78-4.45-1.5-9.87-3.97-19.68-4.51-29.6-.61-11.21-5.01-19.86-12.59-27.83-6.25-6.58-11.4-14.2-16.97-21.71a123 123 0 0 1 8.3 7.74c1.27 1.27 2.44 2.63 4.08 4.41l10.03 11.07s.02-.06.05.3c2.74 4.42 5.46 8.5 8.12 12.96.4 2.02.84 3.66 1.2 5.6.12 1.86.34 3.4.48 5.32 1.74 11.85 3.46 23.34 5.44 34.78.76 4.44-.4 6.84-5.3 6.69-.12-.05-.36 0-.54-.27a22 22 0 0 0-2.67-1.61c-1.08-.41-1.9-.66-2.94-1.14-4.76-2.86-6.38-6.8-6-11.94.18-2.24-.45-4.54-.71-6.81-4.87-8.25-9.4-16.72-14.67-24.7-11.4-17.22-23.2-34.19-34.77-51.3-1.1-1.62-1.86-3.47-2.84-5.98-.1-2.2-.13-3.61-.17-5.03.09-.43.18-.85.62-1.8 3.43-5.36 8.34-4.03 12.79-4.23.2.26.4.53.85 1.24.89 1.2 1.54 1.96 2.18 2.72a82 82 0 0 1 3.9 4.12A262 262 0 0 0 98 76l.07.32c.78 1.04 1.5 1.77 2.23 2.5 1.3 2.11 2.61 4.23 3.89 6.7"/><path fill="#4D1619" d="M133.28 108.66a34 34 0 0 1-1.13-1.83c-1.91-2.26-3.57-4-5.22-5.75 0 0 .06-.07-.03-.38a67 67 0 0 0-3.65-5c-1.92-2.34-5.28-4.4-3-7.96 2.34-3.65 5.98-4.32 10.02-2.7.9.36 1.88.53 2.98.89.16.1.51.27.66.56 1.06.82 1.97 1.35 3.07 2.1.98 1.05 1.78 1.89 2.63 3.06 2.05 2.45 4.03 4.56 6.02 6.7.01.04.09.05.16.38 3.09 3.83 6.4 7.14 8.99 10.94 1.1 1.62 1.75 5.21.79 6.28-3.63 4.04-14.32 2.12-17.47-2.45-1.27-1.84-3.2-3.24-4.82-4.84m7.97-10.4c-.56-.61-1.08-1.28-1.7-1.83-3.32-2.94-6.43-6.24-10.13-8.6-1.38-.88-4.17.42-6.3.72.56 1.7.71 3.73 1.77 5.04 4.68 5.83 10.14 11.1 14.3 17.26 3 4.47 6.28 4.76 10.62 3.65 3.2-.81 3.77-2.46 1.56-4.94-3.21-3.6-6.45-7.18-10.12-11.3"/><path fill="#792328" d="M233.34 222.94c-3.4 1.38-6.6 2.39-9.6 3.8-3.5 1.65-6.71 1.61-10.17-.9-4.4-6.9-8.54-13.6-12.53-20.4a28 28 0 0 1-2.77-7.04c.98-.3 1.62-.23 2.34.17.52 1.36.97 2.39 1.5 3.75 2.75 4.75 5.31 9.23 8.1 13.56 7.8 12.07 9.41 12.33 22.03 5.13 3.27-1.86 4.07-4.07 2.76-7.39-2.19-5.57-4.53-11.09-6.44-16.75-2.1-6.2-3.77-12.53-5.63-18.8 1.17 1.71 2.73 3.3 3.42 5.19 2.11 5.85 3.83 11.85 5.82 17.75 1.57 4.66 3.15 9.32 5.04 13.85 1.73 4.14-.19 6.26-3.87 8.08"/><path fill="#AD3239" d="M133.3 109.03c1.6 1.23 3.53 2.63 4.8 4.47 3.15 4.57 13.84 6.5 17.47 2.45.96-1.07.31-4.66-.8-6.28-2.58-3.8-5.9-7.1-8.63-10.93a211 211 0 0 1 14.67 14.78c.46 4.24-1.82 5.71-5.13 6.15-3.89.52-7.8.92-12.05 1.32-1.73-.4-3.11-.75-4.6-1.38-.99-1.1-1.85-1.9-2.71-2.7-1-2.5-2-5-3.01-7.88"/><path fill="#8E292F" d="M133.64 200.25c.25.98.49 1.96.4 3.31-.6.38-.87.38-1.12.38-5.98-5.49-5.86-13.82-9.38-20.49-.58-1.1 1.16-3.42 2.54-5.27 4.79 1.16 8.87 2.41 13.22 3.84 1.08.44 1.89.7 2.98 1.17 4.19 2.84 7.42 3.06 9.28-1.95-.14 2.32.18 5.19-.98 6.04-1.15.85-3.8-.3-5.78-.63-1.59-.26-3.16-.58-4.74-.88a13 13 0 0 1-2.3-.83c-2.81-1.7-5.06-3.46-7.61-4.26-.86-.27-3.76 2.4-3.57 2.93 2.1 5.64 4.64 11.12 7.06 16.64"/><path fill="#792328" d="M189.16 169.85c-.3-2.39-.6-4.77-1.1-7.9-.8-3.13-1.43-5.54-2.05-8.39-.72-5.8-1.45-11.18-2.18-16.92-.34-2.08-.68-3.78-1-5.82-.27-1.17-.57-2-.88-3.22 0-1.47.02-2.53.23-3.84.47-1 .74-1.77.96-2.6-.05-.06.08.05.48.04 1.49.08 2.58.16 3.48.52-1.1 1.8-3 3.47-2.77 4.78 1.08 6.3 2.72 12.5 4.17 19.07.07 1.05.14 1.74.1 2.76.17 2.26.48 4.19.72 6.13.64 5.16 1.25 10.33 1.53 15.48z"/><path fill="#D83F48" d="M133.68 79.9c5.1-.91 9.83-1.83 14.82-2.46a13 13 0 0 1-1.87 3.96 18 18 0 0 1-3.98 1.48c-3.46.27-6.54.68-9.98.96-6.65-3.2-11.85-1.02-16.6 3.3a148 148 0 0 0-2.93-4.06c6.35-2.8 12.91-5.48 20.54-3.18"/><path fill="#651D21" d="M193.23 209.65s-.07-.34-.21-.82a32 32 0 0 0-2.66-3.29c-.07-.35-.13-.7-.35-1.62a127 127 0 0 0-4.15-6.87 10 10 0 0 1-.12-2.73c.46-.36.69-.35 1.2-.27.64.2 1 .34 1.36.49.75 1.65 1.5 3.3 2.54 5.53 1.1 1.8 1.93 3.05 2.76 4.3l.3.81c.73 1 1.28 1.56 1.83 2.1.34.73.67 1.46 1.21 2.73.73 1.14 1.24 1.73 1.74 2.32 2.46 4.47 4.93 8.95 6.94 13.56a8 8 0 0 1-2.42-1.03l-1.1-1.94a29 29 0 0 0-1.9-2.23s-.06-.36-.17-.87c-1.64-2.44-3.16-4.35-4.68-6.27-.06-.35-.11-.7-.33-1.6a13 13 0 0 0-1.79-2.3M179 242.04c.38-.1.77-.18 1.78-.32a36 36 0 0 0 4.47-2.17c.38-.12.77-.25 1.8-.52 3.1-1.1 5.52-2.06 7.96-3.02l.35-.07c3.51-1.58 6.65-3.1 9.8-4.61l.39-.34c.77-1.28 1.24-2.3 1.71-3.34.39.06.77.12 1.37.65-1.33 2.31-2.55 4.65-4.49 5.89-3.28 2.1-7.01 3.52-10.55 5.22-.73.16-1.45.31-2.65.64-1.04.71-1.6 1.25-2.15 1.78h-.29c-2.61.92-4.85 1.86-7.08 2.8a4 4 0 0 0-1.52.3 43 43 0 0 0-3.85 2.2 9 9 0 0 1-1.96-.24c-1.18-1-1.8-1.79-2.02-2.64 2.59-.78 4.76-1.5 6.93-2.21"/><path fill="#D83F48" d="M139.02 181.85a943 943 0 0 0-12.63-3.83c-2.65-1.58-4.67-3.21-3.03-6.63 2.78.36 5.22.97 7.66 1.57.8.24 1.62.49 2.87 1.17 1.18.83 1.93 1.22 2.68 1.61 0 0 .24-.05.46.3.82.9 1.4 1.46 2 2.4z"/><path fill="#AD3239" d="M116.1 87.5c4.72-4.68 9.92-6.86 16.6-3.35.38.85.39 1.26.4 1.67-.95-.25-1.93-.42-2.83-.78-4.04-1.62-7.68-.95-10.02 2.7-2.28 3.57 1.08 5.62 3 7.96a55 55 0 0 1 3.61 5.02c-5.21-2.7-9.52-6.51-10.77-13.21"/><path fill="#1F080A" d="m186.65 193.99-1-.06c-4.46-7.57-5.96-15.65-4.7-24.5a3.3 3.3 0 0 1 1.78 0c.1.58.2 1.16.08 2.3 1.08 6.9 2.38 13.22 3.7 19.89z"/><path fill="#651D21" d="M182.94 169.03c-.67.29-1.13.19-1.83.03a10 10 0 0 1-.5-2.97c-.6-5.86-1.14-10.97-1.4-15.96a20 20 0 0 1 2.42 4.3c.02 1.1.08 1.82.06 2.77.22.88.53 1.54.84 2.48.05.62.1.97.08 1.54.2.87.46 1.52.73 2.18-.06 1.75-.13 3.5-.4 5.63"/><path fill="#C43941" d="M130.78 172.72c-2.2-.36-4.64-.97-7.4-1.68-.11-5.53.1-10.93.5-16.7.45 1.9 1.08 4.2.9 6.44-.38 5.14 1.24 9.08 6 11.94"/><path fill="#AD3239" d="M186.93 194.05c-.32-.74-.36-1.42-.3-2.85-.74-6.28-1.57-11.8-2.4-17.31 4.47 5.88 5.3 12.58 4.2 20.15-.49.35-.85.21-1.5 0"/><path fill="#651D21" d="M166.45 233.24a42 42 0 0 1 2.18 4c.08 1.15 0 1.66-.38 2.05A82 82 0 0 1 165 237l-.07-.3c-.59-.96-1.1-1.62-1.62-2.28.05-.33.01-.65-.3-1.48a14 14 0 0 0-1.88-2.2l-.28-.83a18 18 0 0 0-1.66-2.3 63 63 0 0 1-.98-2.72c-.14-1.02-.12-1.48.18-1.83 1.25.79 2.21 1.48 3.18 2.17l2.2 3.95a180 180 0 0 0 2.68 4.07"/><path fill="#D83F48" d="M135.96 116.83a8.5 8.5 0 0 1 2.77 2.96 14 14 0 0 1-2.07 3.25l-1.5-.08a533 533 0 0 1-8.2-12.57c2.84 1.9 5.74 4.13 9 6.44"/><path fill="#AD3239" d="M193.99 239.5c3.14-1.8 6.87-3.2 10.15-5.31 1.94-1.24 3.16-3.58 4.76-5.8 2.98 1.67 2.41 4.34-.03 5.56-4.6 2.32-9.63 3.81-14.88 5.55"/><path fill="#651D21" d="M184.07 173.51c.99 5.9 1.82 11.4 2.53 17.35-1.41-5.9-2.7-12.23-3.8-18.83.5.2.8.65 1.27 1.48"/><path fill="#D83F48" d="M182.68 161c-.05-.35-.1-.7-.13-1.66a10 10 0 0 0-.77-2.36 5 5 0 0 1 .28-2.56c1.64-.4 2.8-.4 3.95-.42.62 2.4 1.25 4.82 1.85 7.62-1.02.38-2.02.38-3.6.2-.93-.4-1.25-.6-1.58-.81"/><path fill="#651D21" d="M132.97 204.32c.2-.38.46-.38 1.1-.38 2.91 3.52 5.43 7.05 7.85 10.8-5.55-1.05-7.97-4.9-8.95-10.42"/><path fill="#D83F48" d="M126.9 109.73a198 198 0 0 1-9.69-10.58c3.14 3.2 6.4 6.7 9.7 10.58"/><path fill="#C43941" d="M84.82 60.62c-4.24.5-9.15-.83-12.51 4.21.74-5.4 6.16-7.42 12.51-4.21"/><path fill="#AD3239" d="M193.46 188.93c-.96-3.43-1.92-6.86-2.5-10.33a58 58 0 0 1 3.67 7.86c.1.72.14 1.13 0 1.65-.51.34-.84.58-1.17.82"/><path fill="#651D21" d="M146 216.38c.07-.5.17-.67.87-.82 3.48 1.12 6.35 2.23 9.22 3.34 0 0-.02.08 0 .37-.01.75-.02 1.2-.38 1.7-.81.06-1.28.08-1.75.1 0 0 .04-.05-.17-.3a33 33 0 0 0-3.81-1.65c-1.32-.8-2.64-1.6-3.98-2.74"/><path fill="#380F12" d="M200.54 198.24c-.65-.07-1.3-.15-2.27-.2a9 9 0 0 1-2.5-3 17 17 0 0 1-.2-4.1c.38-.6.54-.83.94-.86 1.51 2.86 2.77 5.5 4.03 8.16"/><path fill="#792328" d="M194.58 186.15c-1.09-2.53-2.17-5.06-3.46-7.88a4.6 4.6 0 0 1-.2-2.24c.32-1.25.51-1.8.92-2.08 1.05 4.24 1.9 8.22 2.74 12.2"/><path fill="#C43941" d="M171.65 244.3c.63.8 1.26 1.6 2.09 2.62-3.4 1.4-4.55-.9-5.07-3.91.87-.04 1.46.16 2.2.52.32.4.54.6.78.78"/><path fill="#D83F48" d="M97.95 75.65a59 59 0 0 1-5.74-6.54 59 59 0 0 1 5.74 6.54"/><path fill="#C43941" d="M181.86 244.69q2.71-1.48 6.64-2.9c-.76 3.3-3.43 3.24-6.64 2.9"/><path fill="#AD3239" d="M126.97 101.43a46 46 0 0 1 5 5.22 46 46 0 0 1-5-5.22m68.36 89.86c.1 1.04.22 2.07.25 3.5a9 9 0 0 1-1.75-3.73c.68-.1 1.09.06 1.5.23m-3.71-17.59-.73 2.03a25 25 0 0 1-1.78-5.48c.5-.38.95-.35 1.78.06.49 1.4.61 2.39.73 3.38"/><path fill="#C43941" d="M165.04 237.33c.95.39 1.94 1.11 3.28 2.24.51.75.67 1.1.52 1.43l-.92-.01c-.95-1.1-1.9-2.21-2.88-3.66M71.39 67.14c.27 1.23.3 2.65.28 4.5a20 20 0 0 1-.28-4.5m104.92 180.11c.84-.8 1.94-1.49 3.36-2.21a13 13 0 0 1-3.36 2.21"/><path fill="#AD3239" d="M193.6 204.02q-1.23-1.35-2.51-3.72 1.24 1.34 2.51 3.72"/><path fill="#792328" d="M195.56 190.93c-.64.19-1.05.02-1.65-.22a3.5 3.5 0 0 1-.43-1.49c.3-.53.64-.77 1.48-1.13.72-.12.94-.13 1.17.18.05.75.1 1.18.13 1.6-.15.24-.3.48-.7 1.06"/><path fill="#380F12" d="M207.1 227.45a12 12 0 0 1-1.52 3.5 12 12 0 0 1-.2-3.91c.6-.23 1.07-.01 1.71.4"/><path fill="#D83F48" d="M100.33 78.57a9 9 0 0 1-2.28-2.25 9 9 0 0 1 2.28 2.25"/><path fill="#651D21" d="M168.03 241.23c.1-.24.3-.24 1.07-.09a7 7 0 0 1 1.63 2.22c-.6-.2-1.2-.39-2.08-.7-.36-.49-.44-.83-.62-1.43"/><path fill="#C43941" d="M150.17 219.39q1.5.28 3.6 1.38-1.53-.29-3.6-1.38M88 64.57a9 9 0 0 1-1.9-2.28q.89.68 1.9 2.28m75.36 170.17q.7.5 1.57 1.95-.7-.5-1.57-1.95m-5.26-11.79-.06 1.7c-.65-.1-1.28-.54-1.88-1.41.15-.56.28-.68.67-.74.6.19.94.32 1.27.45m3.1 8.08q.75.39 1.7 1.68a6 6 0 0 1-1.7-1.68m27.88 10.73q.4-.7 1.67-1.58-.4.7-1.67 1.58m-29.84-13.85q.67.46 1.5 1.82-.67-.45-1.5-1.82"/><path fill="#AD3239" d="M182.6 161.22c.4 0 .73.2 1.28.6.1.42-.01.66-.33 1.24-.48-.32-.75-.97-.94-1.84m13.07 45.76q-.74-.37-1.68-1.63.73.38 1.68 1.63m2.96 5.04a6 6 0 0 1-1.54-1.75q.7.43 1.54 1.75"/><path fill="#C43941" d="M154.08 221.33c.35-.28.82-.3 1.72-.12.55.55.66.89.76 1.23l-.55.55a6 6 0 0 1-1.93-1.66"/><path fill="#380F12" d="M203.3 225.18c.55.07 1.21.45 2.2 1.04.33.21.3.44.18.44a10 10 0 0 1-2.38-1.48"/><path fill="#C43941" d="M72.05 57.7c.03-.25.24-.45.69-.7-.05.18-.3.46-.7.7"/><path fill="#030101" d="M77.6 167.03c-.06-.99-.12-1.97.01-3.65-.07-4.62.1-8.65-.74-12.45-.71-3.27-.48-5.73 2.61-7.1 3.47-1.55 6.75-.7 8.8 2.48 1.7 2.6 3 5.56 4.05 8.5 2.74 7.77 6.45 14.57 14.52 18.13 1.81.8 3.75 2.52 4.5 4.3a430 430 0 0 1 9.32 24.07c.25.7-2.05 3.12-2.2 3.04-5.54-3.13-12.58-2.81-17.06-8.63-7.57-9.84-15.83-19.15-23.8-28.69"/><path fill="#451316" d="M77.48 167.33c8.1 9.24 16.36 18.55 23.93 28.4 4.48 5.8 11.52 5.5 17.05 8.62.16.08 2.46-2.34 2.2-3.04a433 433 0 0 0-9.3-24.07c-.76-1.78-2.7-3.5-4.51-4.3-8.07-3.56-11.78-10.36-14.52-18.12a40 40 0 0 0-4.05-8.51c-2.05-3.17-5.33-4.03-8.8-2.49-3.1 1.38-3.32 3.84-2.61 7.1.83 3.81.67 7.84.74 12.09-1.37-4.65-2.87-9.56-3.62-14.58-.76-4.98 3.1-6.83 7.45-8.56 1.05-.23 1.61-.27 2.17-.32 6.32 3.5 9.96 8.82 11.87 15.81 1.78 6.52 5.26 11.78 11.87 15.13 3.5 1.77 6.62 5.66 8.33 9.32 3.44 7.35 5.83 15.18 8.57 22.84 1.25 3.5-.3 5.93-3.55 4.95-7.07-2.13-14.76-3.32-19.96-9.4a1336 1336 0 0 1-21.1-25.28c-1.17-1.43-1.54-3.52-2.16-5.6"/><path fill="#DA4049" d="M83.99 139.48c-.94.12-1.5.16-2.33.14-1.43-.2-2.58-.34-4.35-.77a16 16 0 0 1-2.36-2.92c7.18-3.66 11.87-2.74 17.32 4.8-2.64-.44-5.27-.88-8.28-1.25"/><path fill="#D83F48" d="M73.85 159.65c-.74.35-1.54.32-2.74.27a72 72 0 0 1-2.9-13.48 8 8 0 0 1 2.85-.44c.91 4.43 1.82 8.85 2.79 13.65"/><path fill="#DA4049" d="M71.16 145.68c-.91.33-1.73.33-2.96.34-1.94-3.82-1.3-6.67 3.64-7.75a12 12 0 0 1 2.35 1.96c-.98 1.71-1.96 3.42-3.03 5.45"/><path fill="#E1424B" d="M100.81 153.28a18 18 0 0 1-.62 2.48c-.63-.34-1.7-.57-1.82-1.05-.33-1.27-.25-2.65-.42-5.52a45 45 0 0 1 2.86 4.1"/><path fill="#D83F48" d="M74.49 140.17a11 11 0 0 1-2.3-1.99c.6-.81 1.4-1.4 2.49-2.11.86.74 1.44 1.62 2.2 2.77-.58.6-1.34.93-2.4 1.33"/><path fill="#A32F36" d="M143.02 83.01c1.12-.48 2.24-.96 4-1.5 3.42.15 6.19.36 8.96.58.82.55 1.65 1.1 2.95 2.05 8.79 8.81 17.1 17.24 25.42 25.67l1.92-1.62c-1.77-2.3-3.44-4.7-5.34-6.9-3.43-3.96-8.11-7.15-7.88-13.28a13 13 0 0 1 3.9-.15c-2.03 3.75.23 6.07 2.2 8.3 3.17 3.62 8.02 6.58 9.44 10.74 2.17 6.33 5.72 5.85 10.54 5.09 5.75-.92 6.3-1.61 4.48-7.55 1.36 1.8 3.6 3.53 3.74 5.42.1 1.18-3 2.6-5.43 4-8.93 1.07-17.1 1.98-25.26 3-5.76.7-10.5-.74-13.76-6.27-3.7-4.2-7.57-7.86-10.6-12.11-3.49-4.88-10.25-7.91-9.28-15.47m37.55 28.62c-7.78-8.5-15.5-17.07-23.41-25.45-1.02-1.08-3.02-1.6-4.6-1.66-1.67-.06-3.36.75-5.05 1.18.47 1.63.49 3.66 1.5 4.82a883 883 0 0 0 19.07 21.11c3.47 3.75 7.72 3.88 12.5 0"/><path fill="#D83F48" d="M163.08 110.87c3.09 5.25 7.82 6.7 13.58 5.98 8.16-1.01 16.33-1.92 24.92-2.88a27 27 0 0 1 5.89 3.22c-.52.87-1.1 1.3-1.98 1.72-.9.09-1.5.18-2.47.06-1.84-.3-3.28-.37-5.1-.55-1.55.23-2.72.54-4.27.88-1.37.12-2.36.22-3.76.23-2.5.49-4.59 1.08-6.67 1.68 0 0-.13-.11-.33.04a19 19 0 0 0-.9 2.75 54 54 0 0 1-.18 3.84c.24 1.53.62 2.42 1 3.32.34 1.7.68 3.4.7 5.56a87 87 0 0 1-4.94 4.55c-.2.1-.62.14-.45-.24.23-1.2.27-2.03.36-3.15-.19-.8-.43-1.32-.71-2.2-.17-1.08-.29-1.8-.3-2.87-.35-1.57-.81-2.8-1.35-4.35a86 86 0 0 0-3.28-5.97c-4.92-1.66-9.58-2.96-14.12.99-.34.47-.45.68-.84.96-.65.2-1.01.3-1.67.13-1.55-.28-2.81-.28-4.38-.34-2.8-.01-5.27.03-7.77-.33l-.07-2.86c3.9-.45 7.8-.85 11.7-1.37 3.3-.44 5.58-1.91 5.42-6.3.84-1.2 1.4-1.85 1.97-2.5"/><path fill="#4D1619" d="M203.42 104.28c2.01 6.1 1.46 6.8-4.29 7.7-4.82.77-8.37 1.25-10.54-5.08-1.42-4.16-6.27-7.12-9.45-10.74-1.96-2.23-4.22-4.55-1.83-8.2a6.6 6.6 0 0 1 3.2-.12l12.21 4.47s.21-.09.21.28c1.61 2.13 3.22 3.89 4.83 5.65.2.24.42.47.9 1.16a77 77 0 0 0 4.76 4.88m-15.46-1.73c1.73 2 3.11 4.79 5.3 5.8 2.15.97 5.12.13 7.73.09-.66-1.65-1.08-3.48-2.06-4.92-1.38-2.04-3.18-3.8-4.8-5.67-3.77-4.35-8.75-5.7-13.85-6.74l-1.3 1.75c2.83 3.07 5.65 6.13 8.98 9.7"/><path fill="#792328" d="M205.8 118.91a33 33 0 0 0 1.98-1.54c6.6-.05 7.6 1.13 8.59 10.18.2 1.3.4 1.87.62 2.83.5 1.81.96 3.23 1.43 4.66-.16 1.1-.31 2.21-.9 3.5-1.33-3.33-2.91-6.82-3-10.34-.12-6.11-2.7-9.12-8.73-9.29"/><path fill="#C43941" d="M218.73 135.06a15 15 0 0 1-1.59-4.9 21 21 0 0 1 .73-2.05l3-4.83c1.06 4.13 1.94 8.56 2.77 13.39-1.56-.26-3.08-.92-4.9-1.6"/><path fill="#A32F36" d="M192.63 92.01a139 139 0 0 1-11.81-4.2c2.62.24 5.5.7 8.75 1.29 1.23.96 2.1 1.79 3.06 2.91m5.11 5.86a46 46 0 0 1-4.9-5.22 46 46 0 0 1 4.9 5.22m4.79 5.17c-1.2-.82-2.4-2-3.69-3.49a20 20 0 0 1 3.7 3.5m15.09 24.98c.04.57-.16 1.06-.52 1.76-.35-.37-.54-.95-.7-1.84.34-.2.66-.1 1.22.08"/><path fill="#E1424B" d="M172.69 87.93c.13 6.21 4.8 9.4 8.24 13.37 1.9 2.2 3.57 4.59 5.34 6.9l-1.92 1.6a8856 8856 0 0 1-25.14-25.55 15 15 0 0 1 4.3-2.11c3.19 1.92 6 3.81 9.18 5.8m-16.71-6.26c-2.77.2-5.54-.02-8.7-.34.22-1.28.84-2.44 1.59-3.9 2.3.11 4.48.5 6.91 1.17.24 1.06.23 1.86.2 3.07"/><path fill="#380F12" d="M205.5 118.91c6.32.17 8.9 3.18 9.03 9.29.08 3.52 1.66 7.01 2.84 10.73.43 1.56.6 2.9.57 4.89.07 1.89.3 3.14.54 4.38.15 1.02.3 2.03.27 3.74.38 3.8.92 6.92 1.5 10.33.1.71.17 1.12.14 1.89.21 1.5.52 2.66.86 4.1.09.7.15 1.08.08 1.8-.37 1.23-.61 2.12-1.12 2.73-.93-2.14-1.9-3.95-2.2-5.87-2.03-13.25-4.18-26.49-5.75-39.8-.54-4.58-2.52-5.7-6.45-5.1q-6.86 1.07-13.7 2.23c-4.93.83-5.43 2.1-4.58 7.21.74 4.52.67 9.17.97 13.76-1.45-6.23-3.1-12.43-4.17-18.72-.22-1.31 1.67-2.99 3.12-4.77a8 8 0 0 1 2.95-.22c2.05-.17 3.78-.45 5.83-.75.74-.07 1.16-.14 1.93-.12 1.99-.43 3.62-.94 5.24-1.46.6-.09 1.2-.18 2.1-.27m17.4 58.79c1.9 6.64 3.57 12.97 5.66 19.17 1.91 5.66 4.25 11.18 6.44 16.75 1.3 3.32.5 5.53-2.76 7.4-12.62 7.2-14.22 6.93-22.02-5.14a165 165 0 0 1-7.79-13.47c3.5 4.1 7.4 8.1 9.87 12.85 5.43 10.45 5.94 10.64 18.74 4.03 2.73-1.4 2.95-3.12 1.86-5.69-1.54-3.65-2.86-7.4-4.26-11.12-2.1-5.57-4.41-11.08-6.18-16.76-1.09-3.51-1.34-7.29-1.7-10.91.78.16 1.3.3 1.81.42z"/><path fill="#AD3239" d="M220.48 163.8c-.06-.41-.12-.82-.09-1.82.16-2.7.22-4.78.28-6.87.9 4.73 1.81 9.45 2.28 14.5-.79.25-1.14.19-1.5.13a8 8 0 0 1-.07-1.74 30 30 0 0 0-.9-4.2"/><path fill="#792328" d="M220.63 154.79c-.02 2.4-.08 4.5-.28 6.88a71 71 0 0 1-1.58-9.35 6.4 6.4 0 0 1 1.86 2.47m.7 15.28c.48-.27.83-.2 1.46-.1.2 1.5.14 2.96-.07 4.84-.66.3-1.18.16-1.95-.28a4 4 0 0 1-.3-1.45c.25-.9.5-1.79.86-3.01m-2.7-22.21c-.39-.9-.62-2.15-.68-3.64.4.94.62 2.12.68 3.64"/><path fill="#C43941" d="M234.81 227.94c-.29.37-.78.64-1.56.96.27-.32.81-.68 1.56-.96m10.29-5.8c.39.27.56.76.77 1.52-.38.3-.8.34-1.54.4-.03-.57.26-1.13.77-1.92m-2.06 2.11q-.43.7-1.76 1.62.44-.69 1.76-1.62"/><path fill="#1F080A" d="m156.5 124.85 1.4-.44c.3-.1.26-.12.37.05.11.18.46.42.65.6 1.23-.12 2.28-.4 3.67-.7 1.03-.07 1.73-.12 2.6-.05.85-.11 1.5-.34 2.51-.6a12 12 0 0 1 3.31.08c.89 2.24 1.6 4.2 2.33 6.17-2.57-3.61-6.2-3.21-9.9-2.64-3.72.58-7.44 1.31-11.2 1.65-4.85.43-5.37 1.43-4.7 6.32.92 6.65 1.19 13.38 1.3 20.53-.85.7-1.27.92-1.72.78-.31-1.8-.6-3.22-.75-4.95.16-.73.18-1.17.32-1.8-.02-.74-.18-1.29-.34-2.18-.09-.8-.17-1.26-.14-2.1.08-1.43.05-2.5.13-3.8-.11-1.07-.35-1.89-.6-3.03-.1-.74-.15-1.16-.2-1.87-.36-.95-.74-1.61-1.13-2.54-.08-.64-.15-1-.07-1.7.34-1.74.54-3.17 1.02-4.8a52 52 0 0 1 6.95-1.44c1.57-.43 2.88-.99 4.2-1.54M140.2 186.1c1.44-.03 3.01.3 4.6.55 1.98.33 4.63 1.48 5.78.63s.84-3.72.97-6.4a14 14 0 0 1-.43-3.3c.06-1.79.03-3.18.08-4.78-.17-.88-.43-1.55-.7-2.55-.1-.96-.2-1.6-.16-2.53-.42-2.43-.96-4.57-1.5-7.09.12-1.15.22-1.9.32-2.67.93 1.42 2.44 2.74 2.7 4.27 1.19 7 2.22 14.03 2.87 21.09.2 2.23-.31 5.97-1.62 6.57-2.17 1-5.34.37-7.9-.28-1.79-.45-3.26-2.09-5-3.52"/><path fill="#451316" d="M133.7 199.86a193 193 0 0 1-7.12-16.25c-.2-.53 2.7-3.2 3.57-2.93 2.55.8 4.8 2.56 7.3 4.23-2.6-.4-5.32-1.1-9.13-2.09a580 580 0 0 1 5.38 17.04"/><path fill="#1F080A" d="M178.92 150c.55 5.12 1.1 10.23 1.61 15.73-1.12-1.9-2.8-4.1-3.17-6.5a132 132 0 0 1-1.35-17.82c.93-.2 1.43-.1 1.94 0 0 0 .43-.04.48.16a8 8 0 0 1-.39 2.35c.06 1.2.31 2.22.64 3.6.13 1.06.18 1.77.24 2.48"/><path fill="#651D21" d="M178.12 141.03c-.68.28-1.18.18-1.94.03-.32-.48-.38-.9-.5-2-.8-2.6-1.57-4.53-2.33-6.46 0-.66.02-1.32 0-2.31-.73-2.3-1.45-4.26-1.97-6.64.7-.57 1.2-.73 1.7-.89 1 1.79 1.98 3.58 2.99 6.05.44 1.9.87 3.13 1.3 4.35.11.72.23 1.44.32 2.71.23 1.14.49 1.72.75 2.3-.05.83-.1 1.66-.32 2.86"/><path fill="#380F12" d="M170.86 243.53c-.48-.86-.83-1.55-1.45-2.37a4 4 0 0 1-.8-1.47c.01-.79.1-1.3.24-2.2 2.79 2.03 5.04 5.46 9.85 4.4a52 52 0 0 1-6.63 2.36 1.6 1.6 0 0 1-1.2-.72m-14.04-21.03c-.37-.4-.48-.74-.68-1.34-.08-.7-.07-1.14-.05-1.92a39 39 0 0 1 5.5 5.61c-1-.32-1.96-1.01-3.21-1.8-.62-.23-.96-.36-1.56-.55m-.86-3.92a97 97 0 0 1-8.87-3.2c3.68-2.19 6.52-.55 8.87 3.2m48.79 12.74a129 129 0 0 1-9.39 4.63 129 129 0 0 1 9.4-4.63"/><path fill="#1F080A" d="M185.74 197.33a50 50 0 0 1 4.18 6.34 50 50 0 0 1-4.18-6.34"/><path fill="#8E292F" d="M149.06 157.65c0 1.07-.1 1.83-.43 3.17-.5.83-.79 1.09-1.3 1.32-.56-.08-.88-.14-1.2-.55.33-1.8.67-3.2 1.02-4.62l1.49-.8c.25.32.28.75.42 1.48"/><path fill="#1F080A" d="M195.36 213.92a46 46 0 0 1 4.6 5.73 46 46 0 0 1-4.6-5.73"/><path fill="#380F12" d="M194.59 236a80 80 0 0 1-7.24 2.93 80 80 0 0 1 7.24-2.93"/><path fill="#1F080A" d="M173.28 133a34 34 0 0 1 2.34 5.74 34 34 0 0 1-2.34-5.73"/><path fill="#380F12" d="M184.9 239.5q-1.39 1.13-3.83 2.16 1.4-1.14 3.83-2.17m-18.39-6.59c-.85-.83-1.65-2-2.52-3.5.81.85 1.7 2 2.52 3.5"/><path fill="#1F080A" d="M190.37 205.89q1.23.9 2.58 2.78a13 13 0 0 1-2.58-2.78m2.93 4.07a6 6 0 0 1 1.64 1.74 6 6 0 0 1-1.64-1.74m6.97 11.04q.7.41 1.64 1.71a6 6 0 0 1-1.64-1.71"/><path fill="#C43941" d="M146.13 161.97c.32.03.64.09 1.23.46.33.71.37 1.1.3 1.82.07 2.78.26 5.24.1 7.77-1.48 1.72-2.62 3.35-4.1 5.11-1.77.4-3.2.67-4.63.93-.6-.56-1.18-1.12-1.88-1.98 4.67-.2 5.84-2.6 5.08-7.03a751 751 0 0 1-5.17-34.69c1.87.35 3.39 1 5.1 1.95 1.45 3.43 2.7 6.54 3.94 9.65.08.45.16.9-.15 1.7-.68.33-.95.33-1.49.22-.87-.32-1.49-.53-2.1-.74-.1 3.89-.46 7.8-.17 11.66.1 1.2 1.92 2.3 3 3.4.13.1.62-.15.94-.23m-5.59-23s0 .04 0 0"/><path fill="#E1424B" d="M141.97 136c-1.52-.65-3.04-1.29-4.83-2.02a17 17 0 0 1-.7-5.49c.32-2.33.42-3.88.52-5.43a26 26 0 0 1 1.89-2.98c1.67.16 3.05.5 4.78.9.38.88.4 1.7.23 3.13a93 93 0 0 0-1.32 5.36c0 1.42.03 2.45-.08 3.77-.25 1.1-.37 1.93-.49 2.75"/><path fill="#C43941" d="M136.66 123.04c.2 1.57.1 3.12-.13 5.14a20 20 0 0 1-1.42-4.83c.45-.37.85-.35 1.55-.31m-.27 52.43a6 6 0 0 1-2.23-1.17q.86.17 2.23 1.17"/><path fill="#090303" d="M141.47 98.52c3.45 3.86 6.69 7.44 9.9 11.04 2.21 2.48 1.63 4.13-1.56 4.94-4.34 1.11-7.62.82-10.63-3.65-4.15-6.17-9.61-11.43-14.3-17.26-1.05-1.3-1.2-3.34-1.77-5.04 2.14-.3 4.93-1.6 6.3-.72 3.7 2.36 6.82 5.66 10.14 8.6.62.55 1.14 1.22 1.92 2.1"/><path fill="#E1424B" d="M162.9 110.6a7 7 0 0 1-1.8 2.37c-5.1-4.74-9.89-9.64-15.03-14.56-.35-.01-.43-.02-.45-.41-2.03-2.49-4.05-4.59-6.07-6.7a38 38 0 0 1-2.69-3.03 17 17 0 0 0-3.1-2.07s-.35-.16-.5-.27c-.17-.52-.18-.93-.21-1.65a64 64 0 0 1 9.6-1.4c-.6 7.69 6.16 10.72 9.64 15.6 3.04 4.25 6.92 7.91 10.6 12.11"/><path fill="#AD3239" d="M139.61 91.65a59 59 0 0 1 6 6.31 59 59 0 0 1-6-6.3m-5.7-5.17q1.18.33 2.76 1.57-1.18-.33-2.76-1.57"/><path fill="#030101" d="M220.2 172.8c.29.65.3 1.03.3 1.7.62 3.93.87 7.7 1.96 11.22 1.77 5.68 4.09 11.19 6.18 16.76 1.4 3.72 2.72 7.47 4.26 11.12 1.1 2.57.87 4.29-1.86 5.7-12.8 6.6-13.31 6.41-18.74-4.04-2.47-4.75-6.37-8.76-9.95-13.19a15 15 0 0 1-1.74-3.5 137 137 0 0 0-4.1-8.5c-.29-.62-.33-1.05-.2-2.14.11-3.12.35-5.61-.02-8.01a202 202 0 0 0-3.05-16.46c-1.25-5.22-3-10.3-4.54-15.45-.06-.7-.13-1.4-.2-2.44-.3-4.94-.23-9.6-.97-14.11-.85-5.1-.35-6.38 4.58-7.2q6.84-1.17 13.7-2.24c3.93-.6 5.91.52 6.45 5.1 1.57 13.31 3.72 26.55 5.76 39.8.3 1.92 1.26 3.73 2.19 5.87"/><path fill="#E1424B" d="M139.02 178.44c1.44-.64 2.87-.9 4.99-1.29 1.8.2 2.9.53 4 1.23.6 5.48-3.84 3.43-6 4.62-.82-.27-1.63-.54-2.71-.98-.28-1.18-.28-2.19-.28-3.58"/><path fill="#C43941" d="M142.28 183.2c1.89-1.39 6.33.66 6.02-4.83.47-.39.66-.4 1.16-.38h1.55c.11.73.23 1.45.35 2.55-1.66 5.71-4.89 5.49-9.08 2.65"/><path fill="#380F12" d="M188.6 148.33c1.63 4.82 3.4 9.91 4.64 15.13 1.3 5.42 2.21 10.94 3.05 16.46.37 2.4.13 4.9 0 7.69-.39.35-.6.36-1.15.38-.37-.4-.41-.81-.5-1.53-.9-4.29-1.75-8.27-2.8-12.5a23 23 0 0 1-.62-3.63c-.65-5.54-1.26-10.7-1.9-15.87-.24-1.94-.55-3.87-.73-6.13"/><path fill="#DA4049" d="M179.2 150.13c-.34-.84-.39-1.55-.39-3.04a21 21 0 0 0-.57-3.33c.08-.66.17-1.32.38-2.29a50 50 0 0 1 4.9-4.38 235 235 0 0 1 2.5 16.47c-1.16.45-2.32.47-3.91.5-1.17-1.26-1.9-2.53-2.9-3.93"/><path fill="#A32F36" d="M190.09 121.38c-.7.02-1.4.05-2.46.06l-4.01-.24a25 25 0 0 1 6.22-1.39c.32.79.29 1.18.25 1.57m-7.26 9.44a7 7 0 0 1-1-2.59c.43.6.73 1.42 1 2.59m-.65-7.06c.04-.63.27-1.5.76-2.45a7 7 0 0 1-.76 2.45"/><path fill="#AD3239" d="M181.7 157.2c.34.37.61.96.86 1.88a4 4 0 0 1-.87-1.88"/><path fill="#1F080A" d="M180.52 111.98c-4.72 3.53-8.97 3.4-12.44-.35A883 883 0 0 1 149 90.53c-1.01-1.17-1.03-3.2-1.5-4.83 1.69-.43 3.38-1.24 5.05-1.18 1.58.06 3.58.58 4.6 1.66a872 872 0 0 1 23.36 25.8"/><path fill="#AD3239" d="M172.84 122.49c-.25.43-.75.59-1.62.9-1.3.19-2.23.24-3.83.24-1.23.16-1.8.36-2.38.56-.7.05-1.39.1-2.87.1-1.67.16-2.54.38-3.41.6 0 0-.35-.25-.27-.7.21-.63.35-.8.5-.98 4.3-3.68 8.96-2.38 13.88-.72"/><path fill="#8E292F" d="M142.56 129.08c.37-1.45.74-2.9 1.31-4.56 2.69-.26 5.17-.3 7.94.04a4 4 0 0 1 .24 1.7c-2.13.46-4.27.9-7 1.68-1.24.6-1.86.87-2.5 1.14"/><path fill="#792328" d="M190.4 121.5c-.27-.51-.24-.9-.15-1.59a9 9 0 0 1 3.59-.46c1.06.53 1.57.92 2.08 1.32a65 65 0 0 1-5.52.74m12.62-2.54a12 12 0 0 1-4.8 1.41 3.6 3.6 0 0 1 .07-1.86c1.45.08 2.9.16 4.73.45"/><path fill="#651D21" d="M152.31 126.4a3.6 3.6 0 0 1-.18-1.78 9 9 0 0 1 4.08-.05 10.5 10.5 0 0 1-3.9 1.82"/><path fill="#A32F36" d="M197.92 118.42c.24.6.11 1.12-.07 1.88-.46.32-.88.39-1.62.46a10 10 0 0 1-2.02-1.33 13 13 0 0 1 3.7-1"/><path fill="#8E292F" d="M177.48 132.81q-.8-1.31-1.34-3.67.79 1.32 1.34 3.67m1 5.07c-.3-.29-.56-.87-.74-1.64q.46.46.74 1.64"/><path fill="#651D21" d="M158.72 123.48c.1-.1-.05.08-.37.53-.19.28-.15.3-.17.32.09-.17.2-.38.54-.85"/><path fill="#090303" d="M187.7 102.3c-3.07-3.31-5.9-6.37-8.72-9.44l1.3-1.75c5.1 1.04 10.08 2.39 13.84 6.74 1.63 1.87 3.43 3.63 4.81 5.67.98 1.44 1.4 3.27 2.06 4.92-2.6.04-5.58.88-7.72-.1-2.2-1-3.58-3.78-5.56-6.04"/><path fill="#792328" d="M220.39 164.16c.42.85.75 2.07.95 3.55-.43-.9-.74-2.04-.95-3.55"/><path fill="#E1424B" d="M146.12 161.59c-.31.46-.8.72-.92.6-1.09-1.09-2.92-2.18-3-3.39-.3-3.86.05-7.77.16-11.66.61.2 1.23.42 2.18 1.06.4.88.47 1.32.45 1.98.36.73.8 1.25 1.24 1.77.29 1.43.58 2.86.9 4.65-.33 1.78-.67 3.2-1 4.99"/><path fill="#8E292F" d="M142.17 136.31a4.7 4.7 0 0 1 .69-3.07c.8-.28 1.07-.28 1.34-.28.06.37.13.73.2 1.67a11 11 0 0 0 1.13 2.53c.06.42.12.84.1 1.83.14 1.38.37 2.2.6 3.03.03 1.06.06 2.12-.02 3.55-1.36-2.72-2.6-5.83-4.04-9.26"/><path fill="#651D21" d="M144.34 132.64c-.41.32-.68.32-1.35.32-.42-1.04-.45-2.07-.45-3.5a6 6 0 0 1 2.22-1.31c.12 1.31-.08 2.74-.42 4.49m14.58-7.59a7 7 0 0 1 2.87-.74c-.6.36-1.64.63-2.87.74m-12.58 16.72a6 6 0 0 1-.69-2.47q.51.87.7 2.47m18.85-17.47c.38-.31.96-.51 1.85-.63-.35.3-1 .53-1.85.64m-19.66 12.56a5 5 0 0 1-1.13-1.97q.6.54 1.13 1.97"/><path fill="#8E292F" d="M145.08 149.96c-.07-.44-.13-.88-.28-1.65.2-.32.47-.32 1.15-.3.56.55.72 1.1.37 1.83-.75.16-1 .14-1.24.12"/><path fill="#C43941" d="M145 150.18c.33-.2.57-.18 1.19-.15.36.45.34.89.18 1.62-.58-.22-1.02-.74-1.38-1.47"/><path fill="#8E292F" d="M151.12 177.59c-.52.4-.94.41-1.7.02-.68-2.16-1-3.91-1.32-5.67-.18-2.45-.37-4.9-.23-7.42 1 1.13 1.67 2.32 2.34 3.5.09.64.18 1.27.25 2.56.2 1.24.43 1.84.65 2.43.04 1.4.07 2.78 0 4.58"/><path fill="#651D21" d="M150.34 167.72c-.8-.88-1.47-2.07-2.35-3.52-.26-.67-.3-1.06-.38-1.74.23-.55.51-.81 1.01-1.26a33 33 0 0 1 1.72 6.52m.86 5.08a4.4 4.4 0 0 1-.73-1.9c.3.35.56 1.02.73 1.9m26.84-28.88c.4.69.61 1.54.7 2.82a6 6 0 0 1-.7-2.82"/><path fill="#D83F48" d="M147.76 172.02a28 28 0 0 1 1.35 5.57c-.15.39-.34.4-.81.4-1.4-.3-2.5-.63-3.95-.98a23 23 0 0 1 3.41-4.99"/><path fill="#E1424B" d="M140.54 138.99c0 .02 0-.03 0 0"/></svg>